<?xml version="1.0" encoding="utf-8"?>
<!-- Generator: Adobe Illustrator 27.3.0, SVG Export Plug-In . SVG Version: 6.00 Build 0)  -->
<svg version="1.1" xmlns="http://www.w3.org/2000/svg" xmlns:xlink="http://www.w3.org/1999/xlink" x="0px" y="0px"
	 viewBox="0 0 500 500" style="enable-background:new 0 0 500 500;" xml:space="preserve">
<style type="text/css">
	.st0{fill:#FFF0BA;}
	.st1{fill:#FFB83E;}
	.st2{fill:#F6F6F4;}
	.st3{fill:#D7D7D7;}
	.st4{fill:#36CBFF;}
	.st5{fill:#01BCFF;}
	.st6{fill:url(#SVGID_1_);}
	.st7{fill:url(#SVGID_00000101799634285169653870000017586481053813340289_);}
</style>
<g id="Giudes">
</g>
<g id="Weather">
	
		<radialGradient id="SVGID_1_" cx="247.5701" cy="382.3037" r="93.3824" fx="158.2462" fy="388.7879" gradientUnits="userSpaceOnUse">
		<stop  offset="0" style="stop-color:#FF9E28;stop-opacity:0.9"/>
		<stop  offset="1" style="stop-color:#FFF065;stop-opacity:0.95"/>
	</radialGradient>
	<polygon class="st6" points="224.2,310.4 207.7,405 240.7,405 224.2,475 302.4,376.2 265.4,376.2 298.3,310.4 	"/>
	
		<radialGradient id="SVGID_00000060718226046538410810000009565808437903666873_" cx="212.8412" cy="262.3244" r="231.4474" fx="58.4799" fy="434.7788" gradientUnits="userSpaceOnUse">
		<stop  offset="0" style="stop-color:#D7D7D7;stop-opacity:0.9"/>
		<stop  offset="0.3417" style="stop-color:#DADADA;stop-opacity:0.9203"/>
		<stop  offset="0.5912" style="stop-color:#E3E3E3;stop-opacity:0.9351"/>
		<stop  offset="0.8108" style="stop-color:#F3F3F1;stop-opacity:0.9482"/>
		<stop  offset="0.8414" style="stop-color:#F6F6F4;stop-opacity:0.95"/>
	</radialGradient>
	<path style="fill:url(#SVGID_00000060718226046538410810000009565808437903666873_);" d="M58.4,184.8c0,0-38.8,17.9-35.8,65.6
		S70.4,310,70.4,310h353.4c0,0,43.2,3,52.1-44.7s-19.6-77.5-47.1-80.5c-12.8-1.4,31-91-84.1-134.2c-95.4-35.8-143.1,62.6-143.1,62.6
		s-44.7-29.8-89.4-14.9S58.4,184.8,58.4,184.8z"/>
</g>
</svg>
